<?xml version="1.0" encoding="utf-8"?>
<!-- Generator: Adobe Illustrator 19.1.0, SVG Export Plug-In . SVG Version: 6.00 Build 0)  -->
<svg version="1.1" id="Layer_1" xmlns="http://www.w3.org/2000/svg" xmlns:xlink="http://www.w3.org/1999/xlink" x="0px" y="0px"
	 viewBox="0 0 260.1 40.1" style="enable-background:new 0 0 260.1 40.1;" xml:space="preserve">
<path d="M227.6,40.1c-10.3,0-15.1-9.8-19.4-18.5C203.8,12.8,200.6,7,195.1,7c-5.5,0-8.8,5.8-13.1,14.6c-4.3,8.7-9.1,18.5-19.4,18.5
	c-10.3,0-15.1-9.8-19.4-18.5C138.8,12.8,135.6,7,130,7c-5.5,0-8.8,5.8-13.1,14.6c-4.3,8.7-9.1,18.5-19.4,18.5
	c-10.3,0-15.1-9.8-19.4-18.5C73.8,12.8,70.5,7,65,7c-5.5,0-8.8,5.8-13.1,14.6c-4.3,8.7-9.1,18.5-19.4,18.5s-15.1-9.8-19.4-18.5
	C8.8,12.8,6,7,0,7V0c10,0,15.1,9.8,19.4,18.5c4.3,8.8,7.6,14.6,13.1,14.6s8.8-5.8,13.1-14.6C49.9,9.8,54.7,0,65,0
	c10.3,0,15.1,9.8,19.4,18.5c4.3,8.8,7.6,14.6,13.1,14.6c5.5,0,8.8-5.8,13.1-14.6C114.9,9.8,119.7,0,130,0c10.3,0,15.1,9.8,19.4,18.5
	c4.3,8.8,7.6,14.6,13.1,14.6s8.8-5.8,13.1-14.6C179.9,9.8,184.7,0,195.1,0c10.3,0,15.1,9.8,19.4,18.5c4.3,8.8,7.6,14.6,13.1,14.6
	c5.5,0,8.7-5.8,13.1-14.6C244.9,9.8,250,0,260,0v7c-5,0-8.7,5.8-13.1,14.6C242.7,30.2,237.9,40.1,227.6,40.1z"/>
</svg>
