<?xml version="1.0" encoding="utf-8"?>
<!-- Generator: Adobe Illustrator 19.1.0, SVG Export Plug-In . SVG Version: 6.00 Build 0)  -->
<svg version="1.1" id="Layer_1" xmlns="http://www.w3.org/2000/svg" xmlns:xlink="http://www.w3.org/1999/xlink" x="0px" y="0px"
	 viewBox="0 0 272.6 173" style="enable-background:new 0 0 272.6 173;" xml:space="preserve">
<style type="text/css">
	.st0{fill:#FFFFFF;}
</style>
<g>
	<path class="st0" d="M36,105.5l-3,20l-6.7-1L33,80.1l6.7,1l-2.7,18.2l7.4,1.1L47,82.2l6.7,1L47,127.6l-6.7-1l3-20L36,105.5z"/>
</g>
<g>
	<path class="st0" d="M79.5,101.2c-1,6.6-1.9,8.9-4.4,11.2c-2.1,1.9-5.2,2.8-8.2,2.4c-3.1-0.5-5.8-2.2-7.3-4.7
		c-1.7-2.9-1.9-5.5-0.9-12L61,82.6c1-6.5,1.9-8.9,4.4-11.2c2.1-1.9,5.2-2.8,8.3-2.4c3.1,0.5,5.8,2.2,7.2,4.7c1.7,2.9,1.9,5.4,0.9,12
		L79.5,101.2z M65.4,98.3c-0.6,4.2-0.8,6.2-0.6,7.2c0.3,1.7,1.4,2.8,2.9,3c1.7,0.2,3.1-0.6,3.8-2.4c0.3-0.8,0.8-2.9,1.3-6.7l2.1-14
		c0.6-4.3,0.8-6.2,0.6-7.2c-0.3-1.7-1.4-2.8-2.9-3c-1.7-0.3-3.2,0.6-3.9,2.4c-0.3,0.8-0.8,3.1-1.3,6.7L65.4,98.3z"/>
</g>
<g>
	<path class="st0" d="M97.8,135.2l-5.5-28.9l-4.1,27.4l-6.2-0.9l6.7-44.4l6.7,1l5.2,27.7l4-26.3l6.2,0.9l-6.7,44.4L97.8,135.2z"/>
</g>
<g>
	<path class="st0" d="M132.7,117.9l-11.4-1.7l-1.8,12.1l8.2,1.2l-0.9,6.2l-8.2-1.2l-2.1,13.7l11.4,1.7l-0.9,6.2l-18.1-2.7l6.7-44.4
		l18.1,2.7L132.7,117.9z"/>
</g>
<g>
	<path class="st0" d="M144.6,142.2l-6.7-1l2.7-18l-4.4-27.7l6.9,1l2.1,18.1l7.2-16.7l6.7,1l-11.9,25.2L144.6,142.2z"/>
</g>
<g>
	<path class="st0" d="M178.6,100.5c0.4-2.6,0.6-4.6,0.7-5.7c0.1-2.2-1.1-3.8-3.1-4.1c-1.7-0.3-3.1,0.6-3.8,2.4
		c-0.3,0.8-0.8,2.9-1.3,6.7l-2.1,14.1c-0.6,4.3-0.8,6.1-0.6,7.1c0.3,1.7,1.4,2.8,2.9,3c1.9,0.3,3.5-1,4.1-3.2
		c0.3-1.2,0.9-4.4,1.2-6.4l6.7,1l-0.4,2.5c-0.7,4.6-1.2,6.3-2.8,8.4c-2.2,3-5.7,4.5-9.6,3.9c-3.1-0.5-5.8-2.2-7.3-4.7
		c-1.8-3-1.9-5.3-0.9-12.2l2.3-15c1-7,1.8-9.1,4.4-11.4c2.1-2,5.2-2.8,8.3-2.4c3.9,0.6,6.9,2.9,8.1,6.2c0.9,2.4,1,4,0.3,8.3
		l-0.4,2.4L178.6,100.5z"/>
</g>
<g>
	<path class="st0" d="M212.6,104.6c-1,6.6-1.9,8.9-4.4,11.2c-2.1,1.9-5.2,2.8-8.2,2.4c-3.1-0.5-5.8-2.2-7.3-4.7
		c-1.7-2.9-1.9-5.5-0.9-12l2.3-15.5c1-6.5,1.9-8.9,4.4-11.2c2.1-1.9,5.2-2.8,8.3-2.4c3.1,0.5,5.8,2.2,7.2,4.7
		c1.7,2.9,1.9,5.4,0.9,12L212.6,104.6z M198.6,101.8c-0.6,4.2-0.8,6.2-0.6,7.2c0.3,1.7,1.4,2.8,2.9,3c1.7,0.2,3.1-0.6,3.8-2.4
		c0.3-0.8,0.8-2.9,1.3-6.7l2.1-14c0.6-4.3,0.8-6.2,0.6-7.2c-0.3-1.7-1.4-2.8-2.9-3c-1.7-0.3-3.2,0.6-3.9,2.4
		c-0.3,0.8-0.8,3.1-1.3,6.7L198.6,101.8z"/>
</g>
<g>
	<path class="st0" d="M236.1,139.4l4.6-30.7l-11,29.7l-3-0.4l-2.1-31.7L220,137l-6.2-0.9l6.7-44.4l8.9,1.3l1.5,27.8l9.1-26.3l9,1.3
		l-6.7,44.4L236.1,139.4z"/>
</g>
<g>
	<path class="st0" d="M253.8,113.3l9.2,1.4c7.3,1.1,10.5,5.5,9.3,13.2c-0.7,4.7-2.5,7.4-6.1,9.2c3.6,2.5,4.7,6,3.8,11.9
		c-0.7,4.5-2.2,7.5-4.7,9.2c-2,1.4-4,1.6-8.3,1l-9.8-1.5L253.8,113.3z M257.2,152.8c3.7,0.6,5.6-1.1,6.3-5.7c0.4-2.9,0-5.2-1.2-6.5
		c-0.8-0.9-1.8-1.3-3.8-1.6l-1.7-0.2l-2,13.6L257.2,152.8z M259.1,132.8c2.1,0.3,3,0.2,4.1-0.5c1.4-1,2.2-2.7,2.6-5.2
		c0.6-3.8-0.6-5.8-3.8-6.3l-2.5-0.4l-1.8,12.2L259.1,132.8z"/>
</g>
<g>
	<path class="st0" d="M14.8,82.7l-0.6-27.6L5.8,81.3L0,80.5l0-45.4l6.7,1L6,63.1l8.2-25.9l5.5,0.8l0.4,27.2l7.4-26l6.5,1L20.6,83.6
		L14.8,82.7z"/>
</g>
<g>
	<path class="st0" d="M43.7,50l-3,20l-6.7-1l6.7-44.4l6.7,1l-2.7,18.2l7.4,1.1l2.7-18.2l6.7,1l-6.7,44.4l-6.7-1l3-20L43.7,50z"/>
</g>
<g>
	<path class="st0" d="M71.5,48.1l-3,9.6l-6.6-1l13.9-43.3l8.6,1.3l1.1,45.5l-6.9-1l-0.1-10L71.5,48.1z M78.5,24.8l-5.2,17.3l5.2,0.8
		L78.5,24.8z"/>
</g>
<g>
	<path class="st0" d="M103.6,46.4l-6.7-1l5.7-38.2l-7.1-1.1L96.6,0l20.9,3.1l-0.9,6.2l-7.2-1.1L103.6,46.4z"/>
</g>
<g>
	<path class="st0" d="M189.2,159l0.2-1.4c1.1-7.5,2.5-10.4,7.3-16.7c1.5-1.9,1.9-2.7,2.1-4.1c0.3-1.9-0.5-3.3-2-3.5
		c-1.8-0.3-3.1,0.8-5,4.1l-5.1-2.9c2.6-5.3,5.9-7.4,10.9-6.6c5.2,0.8,8,4.4,7.2,9.5c-0.4,3-1.4,4.6-5.1,9.2c-3.1,3.8-4.2,6.4-5,11.3
		c-0.1,0.3-0.2,1-0.2,2L189.2,159z M193.2,173l-6.5-1l1-6.9l6.5,1L193.2,173z"/>
</g>
<g>
	<path class="st0" d="M218.6,64.2l-6.7-1l6.7-44.4l6.7,1L218.6,64.2z"/>
</g>
<g>
	<path class="st0" d="M240.3,49.7c0.2-4.1-0.6-5.6-3.1-6c-2.3-0.3-4,1.2-4.4,3.8c-0.5,3.1,0.5,5,4.5,10.1c6,7.4,7.2,10.4,6.4,15.8
		c-1,6.8-6,10.7-12.2,9.8c-6.5-1-10.1-6.4-9.2-13.6l6.5-0.2c-0.5,4.7,0.7,7.2,3.7,7.6c2.5,0.4,4.3-1.3,4.8-4.2c0.2-1.7-0.1-3.4-1-5
		c-0.9-1.6-1.2-2.1-4.4-6c-4.8-6-6.3-9.9-5.5-14.8c1-6.6,5.8-10.3,12.1-9.4c5.9,0.9,8.7,5,8.4,12.2L240.3,49.7z"/>
</g>
<path class="st0" d="M147.8,34.4c-0.1-0.8,0.4-1.9,1-2.5l7.4-5.8c0.7-0.5,1.9-0.8,2.7-0.3l8.8,3.5c0.8,0.3,1.6,1.3,1.7,2.1l1.3,9.4
	c0.1,0.8-0.4,1.9-1,2.5l-7.4,5.8c-0.7,0.5-1.9,0.8-2.7,0.3l-8.8-3.5c-0.8-0.3-1.6-1.3-1.7-2.1L147.8,34.4z"/>
<path class="st0" d="M164.6,53.7c-0.1-0.8,0.4-1.9,1-2.5l7.5-5.8c0.7-0.5,1.9-0.8,2.7-0.3l8.8,3.5c0.8,0.3,1.6,1.3,1.7,2.1l1.3,9.4
	c0.1,0.8-0.4,1.9-1,2.5l-7.4,5.8c-0.7,0.5-1.9,0.8-2.7,0.3l-8.8-3.5c-0.8-0.3-1.6-1.3-1.7-2.1L164.6,53.7z"/>
<path class="st0" d="M131.9,12.9c-0.1-0.8,0.3-1.9,1-2.5l7.4-5.8c0.7-0.5,1.9-0.8,2.7-0.3l8.8,3.5c0.8,0.3,1.6,1.3,1.7,2.1l1.3,9.4
	c0.1,0.8-0.4,1.9-1,2.5l-7.2,5.7c-0.7,0.5-1.9,0.8-2.7,0.4l-8.8-3.4c-0.8-0.3-1.6-1.3-1.7-2.1L131.9,12.9z"/>
<path class="st0" d="M157.7,9.9c-0.1-0.8,0.4-1.9,1-2.5l7.5-5.8c0.7-0.5,1.9-0.8,2.7-0.3l8.8,3.5c0.8,0.3,1.6,1.3,1.7,2.1l1.3,9.4
	c0.1,0.8-0.4,1.9-1,2.5l-7.5,5.8c-0.7,0.5-1.9,0.8-2.7,0.3l-8.8-3.5c-0.8-0.3-1.6-1.3-1.7-2.1L157.7,9.9z"/>
<path class="st0" d="M174.5,29.6c-0.1-0.8,0.4-1.9,1-2.5l7.4-5.8c0.7-0.5,1.9-0.8,2.7-0.3l8.8,3.5c0.8,0.3,1.6,1.3,1.7,2.1l1.3,9.4
	c0.1,0.8-0.4,1.9-1,2.5l-7.5,5.8c-0.7,0.5-1.9,0.8-2.7,0.3l-8.8-3.5c-0.8-0.3-1.6-1.3-1.7-2.1L174.5,29.6z"/>
<path class="st0" d="M122.3,37.2c-0.1-0.8,0.4-1.9,1-2.5l7.4-5.8c0.7-0.5,1.9-0.8,2.7-0.3l8.8,3.5c0.8,0.3,1.6,1.3,1.7,2.1l1.3,9.4
	c0.1,0.8-0.4,1.9-1,2.5l-7.4,5.8c-0.7,0.5-1.9,0.8-2.7,0.3l-8.8-3.5c-0.8-0.3-1.6-1.3-1.7-2.1L122.3,37.2z"/>
<path class="st0" d="M138.1,58.2c-0.1-0.8,0.4-1.9,1-2.5l7.5-5.8c0.7-0.5,1.9-0.8,2.7-0.3L158,53c0.8,0.3,1.6,1.3,1.7,2.1l1.3,9.4
	c0.1,0.8-0.4,1.9-1,2.5l-7.5,5.8c-0.7,0.5-1.9,0.8-2.7,0.3l-8.8-3.5c-0.8-0.3-1.6-1.3-1.7-2.1L138.1,58.2z"/>
</svg>
